# xmcd CD database file
#
# Track frame offsets:
#	182
#	13090
#	25340
#	41840
#	70265
#	97340
#	113465
#	127415
#	163865
#	180727
#	198065
#	215185
#	221990
#	233765
#	244715
#	258925
#
# Disc length: 3729 seconds
#
# Revision: 0
# Processed by: cddbd v1.5PL3 Copyright (c) Steve Scherf et al.
# Submitted via: CDex 1.50
#
DISCID=f40e8f10
DTITLE=Louis Armstrong - What a Wonderful World
DYEAR=1967
DGENRE=Jazz
TTITLE0=What a Wonderful World
TTITLE1=Wilkommen
TTITLE2=Mack the Knife
TTITLE3=Struttin' With Some Barbecue
TTITLE4=I'm Confessin'
TTITLE5=Pretty Little Missy
TTITLE6=Lover Come Back to Me
TTITLE7=Basin Street Blues
TTITLE8=Perdido
TTITLE9=Mack the Knife
TTITLE10=When the Saints Go Marchin' In
TTITLE11=Back O' Town Blues
TTITLE12=Some of These Days
TTITLE13=Ohi Mari
TTITLE14=Mi Va Di Cantara (1st Version)
TTITLE15=Mi Va Di Cantare (2nd Version)
EXTD=YEAR: 1967
EXTT0=
EXTT1=
EXTT2=
EXTT3=
EXTT4=
EXTT5=
EXTT6=
EXTT7=
EXTT8=
EXTT9=
EXTT10=
EXTT11=
EXTT12=
EXTT13=
EXTT14=
EXTT15=
PLAYORDER=
